<svg width="25" height="28" viewBox="0 0 25 28" fill="none" xmlns="http://www.w3.org/2000/svg">
<path d="M24.3562 3.40848V27.9538L18.2669 24.4494L12.1775 27.9538L6.08822 24.4494L0 27.9538V3.40848C0 1.52579 1.52261 0 3.40139 0H20.9548C22.8336 0 24.3562 1.52579 24.3562 3.40848Z" fill="#FF772C"/>
<path d="M14.938 6.30176L16.2747 6.75124C14.8234 9.19719 13.5423 11.3844 12.4304 13.315C11.3185 15.2457 10.3145 17.028 9.41854 18.662L8.03283 18.2783C9.20707 16.3287 10.3368 14.4337 11.4242 12.5923C12.5116 10.752 13.5545 8.95962 14.5551 7.21634C14.1199 7.64128 13.6881 7.9547 13.2585 8.15546C12.8288 8.35734 12.3892 8.45772 11.9373 8.45772C11.7258 8.45772 11.5066 8.43318 11.2806 8.3841C11.0547 8.33503 10.8232 8.26476 10.5839 8.17219C10.6763 8.42872 10.7464 8.6819 10.7953 8.93174C10.8443 9.18269 10.8688 9.42472 10.8688 9.65894C10.8688 10.7096 10.5683 11.5561 9.96838 12.1952C9.36735 12.8354 8.58155 13.1555 7.60766 13.1555C6.63377 13.1555 5.8758 12.8488 5.28034 12.2365C4.68487 11.6242 4.3877 10.8267 4.3877 9.84743C4.3877 8.7912 4.69044 7.93574 5.29703 7.28214C5.90252 6.62855 6.68719 6.30176 7.64884 6.30176C7.97496 6.30176 8.27547 6.33299 8.54928 6.39545C8.82419 6.45791 9.09466 6.56052 9.36067 6.70217C9.84483 6.88174 10.2923 7.01558 10.7063 7.10257C11.1192 7.18957 11.5077 7.23307 11.8716 7.23307C12.3714 7.23307 12.8734 7.15723 13.3753 7.00442C13.8784 6.85162 14.3982 6.6174 14.9369 6.30176H14.938ZM7.52752 7.37249C7.20697 7.37249 6.96768 7.53979 6.80963 7.87439C6.65158 8.20899 6.57367 8.71982 6.57367 9.40576C6.57367 10.2824 6.6705 10.9483 6.86305 11.4033C7.0556 11.8584 7.33497 12.0859 7.69893 12.0859C8.03617 12.0859 8.28326 11.9298 8.44131 11.6164C8.59936 11.303 8.67727 10.8089 8.67727 10.1341C8.67727 9.15927 8.58712 8.45549 8.40792 8.02273C8.22873 7.58998 7.93489 7.3736 7.52752 7.3736V7.37249ZM16.7478 11.8171C17.7261 11.8171 18.5075 12.1238 19.0918 12.7362C19.6761 13.3485 19.9677 14.1649 19.9677 15.1832C19.9677 16.2015 19.6672 17.0771 19.0673 17.7117C18.4663 18.3463 17.6827 18.6631 16.7155 18.6631C15.7483 18.6631 14.9747 18.3586 14.3804 17.7485C13.7849 17.1384 13.4877 16.3465 13.4877 15.3717C13.4877 14.3211 13.7916 13.4656 14.4004 12.8064C15.0092 12.1473 15.7917 11.8182 16.7489 11.8182L16.7478 11.8171ZM16.6253 12.8711C16.3048 12.8711 16.0666 13.0395 15.9119 13.3775C15.7572 13.7154 15.6793 14.2274 15.6793 14.9133C15.6793 15.79 15.7739 16.4558 15.9642 16.9109C16.1545 17.366 16.4317 17.5935 16.7956 17.5935C17.1329 17.5935 17.3811 17.4351 17.5414 17.1195C17.7016 16.8038 17.7818 16.3075 17.7818 15.6327C17.7818 14.6579 17.6905 13.9541 17.5091 13.5214C17.3265 13.0886 17.0316 12.8722 16.6242 12.8722L16.6253 12.8711Z" fill="white"/>
</svg>
