<svg width="77" height="69" viewBox="0 0 77 69" fill="none" xmlns="http://www.w3.org/2000/svg">
<path d="M65.45 61.3333H11.55V65.1667C11.55 66.1833 11.1444 67.1584 10.4224 67.8772C9.70035 68.5961 8.72108 69 7.7 69H3.85C2.82892 69 1.84965 68.5961 1.12764 67.8772C0.405624 67.1584 0 66.1833 0 65.1667V30.6667L9.67505 4.97567C10.2253 3.51399 11.2106 2.25439 12.4992 1.36525C13.7878 0.476115 15.3183 -0.000194344 16.8861 5.94849e-08H60.1139C61.6817 -0.000194344 63.2122 0.476115 64.5008 1.36525C65.7894 2.25439 66.7747 3.51399 67.3249 4.97567L77 30.6667V65.1667C77 66.1833 76.5944 67.1584 75.8724 67.8772C75.1503 68.5961 74.1711 69 73.15 69H69.3C68.2789 69 67.2997 68.5961 66.5776 67.8772C65.8556 67.1584 65.45 66.1833 65.45 65.1667V61.3333ZM8.2236 30.6667H68.7764L60.1139 7.66667H16.8861L8.2236 30.6667ZM17.325 49.8333C18.8566 49.8333 20.3255 49.2275 21.4085 48.1492C22.4916 47.0709 23.1 45.6083 23.1 44.0833C23.1 42.5583 22.4916 41.0958 21.4085 40.0175C20.3255 38.9391 18.8566 38.3333 17.325 38.3333C15.7934 38.3333 14.3245 38.9391 13.2415 40.0175C12.1584 41.0958 11.55 42.5583 11.55 44.0833C11.55 45.6083 12.1584 47.0709 13.2415 48.1492C14.3245 49.2275 15.7934 49.8333 17.325 49.8333ZM59.675 49.8333C61.2066 49.8333 62.6755 49.2275 63.7585 48.1492C64.8416 47.0709 65.45 45.6083 65.45 44.0833C65.45 42.5583 64.8416 41.0958 63.7585 40.0175C62.6755 38.9391 61.2066 38.3333 59.675 38.3333C58.1434 38.3333 56.6745 38.9391 55.5915 40.0175C54.5084 41.0958 53.9 42.5583 53.9 44.0833C53.9 45.6083 54.5084 47.0709 55.5915 48.1492C56.6745 49.2275 58.1434 49.8333 59.675 49.8333Z" fill="#F77F00"/>
</svg>
