<svg width="97" height="97" viewBox="0 0 97 97" fill="none" xmlns="http://www.w3.org/2000/svg">
<path d="M45.4459 5.76605L5.76389 45.448C4.95462 46.2576 4.5 47.3553 4.5 48.5C4.5 49.6447 4.95462 50.7424 5.76389 51.552L45.448 91.2361C46.2576 92.0454 47.3553 92.5 48.5 92.5C49.6447 92.5 50.7424 92.0454 51.552 91.2361L91.2339 51.5541C92.0432 50.7446 92.4978 49.6468 92.4978 48.5022C92.4978 47.3575 92.0432 46.2597 91.2339 45.4502L51.5498 5.76389C50.7403 4.95462 49.6425 4.5 48.4978 4.5C47.3532 4.5 46.2554 4.95462 45.4459 5.76389V5.76605Z" stroke="#F77F00" stroke-width="9" stroke-linejoin="round"/>
<path d="M35.0879 48.5001H60.9886M48.0382 35.5498V61.4505" stroke="#F77F00" stroke-width="9" stroke-linecap="round"/>
</svg>
