<svg width="95" height="81" viewBox="0 0 95 81" fill="none" xmlns="http://www.w3.org/2000/svg">
<path fill-rule="evenodd" clip-rule="evenodd" d="M69.5338 62.3681C71.9841 67.6481 74.2051 68.1087 75.3451 68.1087C76.4851 68.1087 78.7061 67.6481 81.1564 62.3681C83.6264 57.0751 85.1726 48.8956 85.1726 38.9193C85.1726 28.943 83.6264 20.7634 81.1564 15.4704C78.7061 10.1839 76.4916 9.72981 75.3451 9.72981C74.1986 9.72981 71.9841 10.1904 69.5338 15.4704C67.0638 20.7569 65.5177 28.943 65.5177 38.9193C65.5177 48.8956 67.0638 57.0751 69.5338 62.3681ZM55.6902 38.9193C55.6902 48.448 56.9809 57.1789 59.5557 63.9443L15.7384 47.4166C13.9993 46.7601 12.5027 45.596 11.4468 44.0786C10.3909 42.5612 9.82555 40.7619 9.82555 38.9193C9.82555 37.0766 10.3909 35.2773 11.4468 33.7599C12.5027 32.2425 13.9993 31.0784 15.7384 30.4219L59.5426 13.8942C56.9743 20.6596 55.6902 29.397 55.6902 38.9193ZM75.3451 77.8385C88.4484 77.8385 95 60.4157 95 38.9193C95 17.4229 88.4484 0 75.3451 0C71.0145 0 66.7166 0.778385 62.6743 2.30921L12.2464 21.3278C8.64486 22.6857 5.54519 25.0951 3.35816 28.2367C1.17113 31.3783 0 35.1037 0 38.9193C0 42.7348 1.17113 46.4602 3.35816 49.6018C5.54519 52.7434 8.64486 55.1528 12.2464 56.5108L17.6646 58.554C16.8223 60.5581 16.395 62.7093 16.408 64.8799C16.4211 67.0506 16.8741 69.1966 17.7404 71.1907C18.6066 73.1847 19.8684 74.9864 21.4509 76.4887C23.0335 77.991 24.9045 79.1635 26.9532 79.9366C29.0019 80.7097 31.1865 81.0677 33.3776 80.9894C35.5686 80.9111 37.7215 80.3981 39.7086 79.4808C41.6957 78.5635 43.4765 77.2605 44.9455 75.6491C46.4146 74.0378 47.5419 72.1508 48.2607 70.1001L62.6743 75.5293C66.7195 77.0604 71.0143 77.8431 75.3451 77.8385ZM39.0687 66.6233L26.863 62.0308C26.469 62.8399 26.2489 63.7212 26.2168 64.6189C26.1847 65.5166 26.3413 66.4111 26.6767 67.2458C27.012 68.0804 27.5188 68.837 28.1649 69.4677C28.811 70.0983 29.5823 70.5891 30.4301 70.9092C31.2778 71.2292 32.1835 71.3714 33.0896 71.3269C33.9958 71.2823 34.8827 71.0518 35.6942 70.6501C36.5057 70.2484 37.2241 69.6842 37.8038 68.9933C38.3836 68.3023 38.8121 67.4997 39.0622 66.6362" fill="#F77F00"/>
</svg>
